<svg width="64" height="64" viewBox="0 0 64 64" xmlns="http://www.w3.org/2000/svg">
  <defs>
    <linearGradient id="grad1" x1="0%" y1="0%" x2="100%" y2="100%">
      <stop offset="0%" style="stop-color:#4A90E2;stop-opacity:1" />
      <stop offset="100%" style="stop-color:#357ABD;stop-opacity:1" />
    </linearGradient>
    <linearGradient id="grad2" x1="0%" y1="0%" x2="100%" y2="100%">
      <stop offset="0%" style="stop-color:#5BA0F2;stop-opacity:1" />
      <stop offset="100%" style="stop-color:#4A90E2;stop-opacity:1" />
    </linearGradient>
  </defs>
  
  <!-- Main 4 shape -->
  <path d="M20 12 L20 32 L32 32 L32 52 L40 52 L40 32 L52 32 L52 24 L40 24 L40 12 Z" fill="url(#grad1)"/>
  
  <!-- 3D effect layers -->
  <path d="M22 14 L22 30 L30 30 L30 50 L38 50 L38 30 L50 30 L50 26 L38 26 L38 14 Z" fill="url(#grad2)" opacity="0.8"/>
  
  <!-- Highlight -->
  <path d="M24 16 L24 28 L28 28 L28 48 L36 48 L36 28 L48 28 L48 28 L36 28 L36 16 Z" fill="#FFFFFF" opacity="0.3"/>
  
  <!-- Shadow -->
  <ellipse cx="32" cy="58" rx="20" ry="4" fill="#000000" opacity="0.2"/>
</svg>
